<?xml version="1.0" encoding="UTF-8" standalone="no"?><svg xmlns="http://www.w3.org/2000/svg" xmlns:xlink="http://www.w3.org/1999/xlink" contentScriptType="application/ecmascript" contentStyleType="text/css" height="365px" preserveAspectRatio="none" style="width:745px;height:365px;" version="1.1" viewBox="0 0 745 365" width="745px" zoomAndPan="magnify"><defs><filter height="300%" id="f1ued8nqk51y0o" width="300%" x="-1" y="-1"><feGaussianBlur result="blurOut" stdDeviation="2.0"/><feColorMatrix in="blurOut" result="blurOut2" type="matrix" values="0 0 0 0 0 0 0 0 0 0 0 0 0 0 0 0 0 0 .4 0"/><feOffset dx="4.0" dy="4.0" in="blurOut2" result="blurOut3"/><feBlend in="SourceGraphic" in2="blurOut3" mode="normal"/></filter></defs><g><!--MD5=[e69d6994dde37a3d0167e5476c791457]
class CustomerRepository--><a href="java:fr.training.samples.spring.shop.domain.customer.CustomerRepository" target="_top" title="java:fr.training.samples.spring.shop.domain.customer.CustomerRepository" xlink:actuate="onRequest" xlink:href="java:fr.training.samples.spring.shop.domain.customer.CustomerRepository" xlink:show="new" xlink:title="java:fr.training.samples.spring.shop.domain.customer.CustomerRepository" xlink:type="simple"><rect fill="#FEFECE" filter="url(#f1ued8nqk51y0o)" height="73.6094" id="CustomerRepository" style="stroke: #A80036; stroke-width: 1.5;" width="188" x="146" y="8"/><ellipse cx="174.5" cy="24" fill="#B4A7E5" rx="11" ry="11" style="stroke: #A80036; stroke-width: 1.0;"/><path d="M170.4219,19.7656 L170.4219,17.6094 L177.8125,17.6094 L177.8125,19.7656 L175.3438,19.7656 L175.3438,27.8438 L177.8125,27.8438 L177.8125,30 L170.4219,30 L170.4219,27.8438 L172.8906,27.8438 L172.8906,19.7656 L170.4219,19.7656 Z "/><text fill="#000000" font-family="sans-serif" font-size="12" font-style="italic" lengthAdjust="spacingAndGlyphs" textLength="126" x="191.5" y="28.1543">CustomerRepository</text><line style="stroke: #A80036; stroke-width: 1.5;" x1="147" x2="333" y1="40" y2="40"/><line style="stroke: #A80036; stroke-width: 1.5;" x1="147" x2="333" y1="48" y2="48"/><text fill="#000000" font-family="sans-serif" font-size="11" lengthAdjust="spacingAndGlyphs" textLength="161" x="152" y="62.2104">Customer findById(String id)</text><text fill="#000000" font-family="sans-serif" font-size="11" lengthAdjust="spacingAndGlyphs" textLength="176" x="152" y="75.0151">void save(Customer customer)</text></a><!--MD5=[7d6171d2116a1b43679ac76e3d4f753b]
class CustomerJpaRepository--><a href="java:fr.training.samples.spring.shop.insfrastructure.customer.CustomerJpaRepository" target="_top" title="java:fr.training.samples.spring.shop.insfrastructure.customer.CustomerJpaRepository" xlink:actuate="onRequest" xlink:href="java:fr.training.samples.spring.shop.insfrastructure.customer.CustomerJpaRepository" xlink:show="new" xlink:title="java:fr.training.samples.spring.shop.insfrastructure.customer.CustomerJpaRepository" xlink:type="simple"><rect fill="#FEFECE" filter="url(#f1ued8nqk51y0o)" height="48" id="CustomerJpaRepository" style="stroke: #A80036; stroke-width: 1.5;" width="177" x="385.5" y="306"/><ellipse cx="400.5" cy="322" fill="#B4A7E5" rx="11" ry="11" style="stroke: #A80036; stroke-width: 1.0;"/><path d="M396.4219,317.7656 L396.4219,315.6094 L403.8125,315.6094 L403.8125,317.7656 L401.3438,317.7656 L401.3438,325.8438 L403.8125,325.8438 L403.8125,328 L396.4219,328 L396.4219,325.8438 L398.8906,325.8438 L398.8906,317.7656 L396.4219,317.7656 Z "/><text fill="#000000" font-family="sans-serif" font-size="12" font-style="italic" lengthAdjust="spacingAndGlyphs" textLength="145" x="414.5" y="326.1543">CustomerJpaRepository</text><line style="stroke: #A80036; stroke-width: 1.5;" x1="386.5" x2="561.5" y1="338" y2="338"/><line style="stroke: #A80036; stroke-width: 1.5;" x1="386.5" x2="561.5" y1="346" y2="346"/></a><!--MD5=[28bfc68b06357f9318cc00e3205b7bf0]
class JpaRepository_Customer_String_--><rect fill="#FEFECE" filter="url(#f1ued8nqk51y0o)" height="48" id="JpaRepository_Customer_String_" style="stroke: #A80036; stroke-width: 1.5;" width="222" x="509" y="162"/><ellipse cx="524" cy="178" fill="#B4A7E5" rx="11" ry="11" style="stroke: #A80036; stroke-width: 1.0;"/><path d="M519.9219,173.7656 L519.9219,171.6094 L527.3125,171.6094 L527.3125,173.7656 L524.8438,173.7656 L524.8438,181.8438 L527.3125,181.8438 L527.3125,184 L519.9219,184 L519.9219,181.8438 L522.3906,181.8438 L522.3906,173.7656 L519.9219,173.7656 Z "/><text fill="#000000" font-family="sans-serif" font-size="12" font-style="italic" lengthAdjust="spacingAndGlyphs" textLength="85" x="538" y="182.1543">JpaRepository</text><rect fill="#FFFFFF" height="15.9688" style="stroke: #000000; stroke-width: 1.0; stroke-dasharray: 2.0,2.0;" width="103" x="631" y="159"/><text fill="#000000" font-family="sans-serif" font-size="12" font-style="italic" lengthAdjust="spacingAndGlyphs" textLength="101" x="632" y="171.1387">Customer,String</text><line style="stroke: #A80036; stroke-width: 1.5;" x1="510" x2="730" y1="194" y2="194"/><line style="stroke: #A80036; stroke-width: 1.5;" x1="510" x2="730" y1="202" y2="202"/><!--MD5=[cf75d845bb7d5e8db505e66e485464b9]
class CustomerRepositoryImpl--><a href="java:fr.training.samples.spring.shop.insfrastructure.customer.CustomerRepositoryImpl" target="_top" title="java:fr.training.samples.spring.shop.insfrastructure.customer.CustomerRepositoryImpl" xlink:actuate="onRequest" xlink:href="java:fr.training.samples.spring.shop.insfrastructure.customer.CustomerRepositoryImpl" xlink:show="new" xlink:title="java:fr.training.samples.spring.shop.insfrastructure.customer.CustomerRepositoryImpl" xlink:type="simple"><rect fill="#FEFECE" filter="url(#f1ued8nqk51y0o)" height="86.4141" id="CustomerRepositoryImpl" style="stroke: #A80036; stroke-width: 1.5;" width="468" x="6" y="143"/><ellipse cx="160.25" cy="159" fill="#ADD1B2" rx="11" ry="11" style="stroke: #A80036; stroke-width: 1.0;"/><path d="M163.2188,164.6406 Q162.6406,164.9375 162,165.0859 Q161.3594,165.2344 160.6563,165.2344 Q158.1563,165.2344 156.8359,163.5859 Q155.5156,161.9375 155.5156,158.8125 Q155.5156,155.6875 156.8359,154.0313 Q158.1563,152.375 160.6563,152.375 Q161.3594,152.375 162.0078,152.5313 Q162.6563,152.6875 163.2188,152.9844 L163.2188,155.7031 Q162.5938,155.125 162,154.8516 Q161.4063,154.5781 160.7813,154.5781 Q159.4375,154.5781 158.75,155.6484 Q158.0625,156.7188 158.0625,158.8125 Q158.0625,160.9063 158.75,161.9766 Q159.4375,163.0469 160.7813,163.0469 Q161.4063,163.0469 162,162.7734 Q162.5938,162.5 163.2188,161.9219 L163.2188,164.6406 Z "/><text fill="#000000" font-family="sans-serif" font-size="12" lengthAdjust="spacingAndGlyphs" textLength="151" x="180.75" y="163.1543">CustomerRepositoryImpl</text><line style="stroke: #A80036; stroke-width: 1.5;" x1="7" x2="473" y1="175" y2="175"/><line style="stroke: #A80036; stroke-width: 1.5;" x1="7" x2="473" y1="183" y2="183"/><ellipse cx="17" cy="194" fill="#84BE84" rx="3" ry="3" style="stroke: #038048; stroke-width: 1.0;"/><text fill="#000000" font-family="sans-serif" font-size="11" lengthAdjust="spacingAndGlyphs" textLength="442" x="26" y="197.2104">CustomerRepositoryImpl(CustomerJpaRepository customerDataJpaRepository)</text><ellipse cx="17" cy="206.8047" fill="#84BE84" rx="3" ry="3" style="stroke: #038048; stroke-width: 1.0;"/><text fill="#000000" font-family="sans-serif" font-size="11" lengthAdjust="spacingAndGlyphs" textLength="161" x="26" y="210.0151">Customer findById(String id)</text><ellipse cx="17" cy="219.6094" fill="#84BE84" rx="3" ry="3" style="stroke: #038048; stroke-width: 1.0;"/><text fill="#000000" font-family="sans-serif" font-size="11" lengthAdjust="spacingAndGlyphs" textLength="176" x="26" y="222.8198">void save(Customer customer)</text></a><!--MD5=[fdde7e236442b687a02135141b6af8ad]
reverse link JpaRepository_Customer_String_ to CustomerJpaRepository--><path d="M581.1356,224.332 C554.8999,250.2083 521.0726,283.5722 498.5168,305.819 " fill="none" id="JpaRepository_Customer_String_&lt;-CustomerJpaRepository" style="stroke: #A80036; stroke-width: 1.0;"/><polygon fill="none" points="576.408,219.1629,595.5629,210.1024,586.239,229.1304,576.408,219.1629" style="stroke: #A80036; stroke-width: 1.0;"/><!--MD5=[418967f8ad381edf21c57fb331b752d7]
link CustomerRepositoryImpl to CustomerJpaRepository--><path d="M282.113,229.3963 C299.311,245.4858 320.064,262.9681 341,276 C358.2611,286.7445 378.0285,296.1251 396.9515,303.9199 " fill="none" id="CustomerRepositoryImpl-&gt;CustomerJpaRepository" style="stroke: #A80036; stroke-width: 1.0;"/><polygon fill="#A80036" points="401.7422,305.8674,394.911,298.7727,397.1103,303.9846,391.8984,306.1839,401.7422,305.8674" style="stroke: #A80036; stroke-width: 1.0;"/><text fill="#000000" font-family="sans-serif" font-size="13" lengthAdjust="spacingAndGlyphs" textLength="178" x="342" y="272.0669">customerDataJpaRepository</text><text fill="#000000" font-family="sans-serif" font-size="13" lengthAdjust="spacingAndGlyphs" textLength="8" x="374.2011" y="294.8455">1</text><!--MD5=[79c8eba641e03925bee58cb7b444a2d0]
reverse link CustomerRepository to CustomerRepositoryImpl--><path d="M240,102.4616 C240,115.992 240,130.1863 240,142.9562 " fill="none" id="CustomerRepository&lt;-CustomerRepositoryImpl" style="stroke: #A80036; stroke-width: 1.0; stroke-dasharray: 7.0,7.0;"/><polygon fill="none" points="233.0001,102.0461,240,82.0461,247.0001,102.0461,233.0001,102.0461" style="stroke: #A80036; stroke-width: 1.0;"/><!--MD5=[3e979a28d6405521b1b1b6442f92dac0]
@startuml
interface CustomerRepository [[java:fr.training.samples.spring.shop.domain.customer.CustomerRepository]] {
	Customer findById(String id)
	void save(Customer customer)
}
interface CustomerJpaRepository [[java:fr.training.samples.spring.shop.insfrastructure.customer.CustomerJpaRepository]] {
}
interface "JpaRepository<Customer,String>" as JpaRepository_Customer_String_ {
}
JpaRepository_Customer_String_ <|- - CustomerJpaRepository
class CustomerRepositoryImpl [[java:fr.training.samples.spring.shop.insfrastructure.customer.CustomerRepositoryImpl]] {
	+CustomerRepositoryImpl(CustomerJpaRepository customerDataJpaRepository)
	+Customer findById(String id)
	+void save(Customer customer)
}
interface CustomerJpaRepository [[java:fr.training.samples.spring.shop.insfrastructure.customer.CustomerJpaRepository]] {
}
CustomerRepositoryImpl - -> "1" CustomerJpaRepository : customerDataJpaRepository
interface CustomerRepository [[java:fr.training.samples.spring.shop.domain.customer.CustomerRepository]] {
}
CustomerRepository <|.. CustomerRepositoryImpl
@enduml

PlantUML version 1.2019.12(Sun Nov 03 10:24:54 UTC 2019)
(GPL source distribution)
Java Runtime: OpenJDK Runtime Environment
JVM: OpenJDK 64-Bit Server VM
Java Version: 1.8.0_232-heroku-b09
Operating System: Linux
Default Encoding: UTF-8
Language: en
Country: US
--></g></svg>