<?xml version="1.0" encoding="UTF-8" standalone="no"?>
<svg xmlns="http://www.w3.org/2000/svg" xmlns:xlink="http://www.w3.org/1999/xlink" contentScriptType="application/ecmascript" contentStyleType="text/css" height="222px" preserveAspectRatio="none" style="width:203px;height:222px;" version="1.1" viewBox="0 0 203 222" width="203px" zoomAndPan="magnify"><defs><filter height="300%" id="fgqswgi8zpj24" width="300%" x="-1" y="-1"><feGaussianBlur result="blurOut" stdDeviation="2.0"/><feColorMatrix in="blurOut" result="blurOut2" type="matrix" values="0 0 0 0 0 0 0 0 0 0 0 0 0 0 0 0 0 0 .4 0"/><feOffset dx="4.0" dy="4.0" in="blurOut2" result="blurOut3"/><feBlend in="SourceGraphic" in2="blurOut3" mode="normal"/></filter></defs><g><!--MD5=[2ce0c9fb7f55b1e256ab28a8ea6b25ec]
class Customer--><a href="java:fr.training.samples.spring.shop.domain.customer.Customer" target="_top" title="java:fr.training.samples.spring.shop.domain.customer.Customer" xlink:actuate="onRequest" xlink:href="java:fr.training.samples.spring.shop.domain.customer.Customer" xlink:show="new" xlink:title="java:fr.training.samples.spring.shop.domain.customer.Customer" xlink:type="simple"><rect codeLine="1" fill="#FEFECE" filter="url(#fgqswgi8zpj24)" height="201.6563" id="Customer" style="stroke:#A80036;stroke-width:1.5;" width="182" x="7" y="7"/><ellipse cx="64.75" cy="23" fill="#ADD1B2" rx="11" ry="11" style="stroke:#A80036;stroke-width:1.0;"/><path d="M67.0938,18.6719 C66.1563,18.2344 65.5625,18.0938 64.6875,18.0938 C62.0625,18.0938 60.0625,20.1719 60.0625,22.8906 L60.0625,24.0156 C60.0625,26.5938 62.1719,28.4844 65.0625,28.4844 C66.2813,28.4844 67.4375,28.1875 68.1875,27.6406 C68.7656,27.2344 69.0938,26.7813 69.0938,26.3906 C69.0938,25.9375 68.7031,25.5469 68.2344,25.5469 C68.0156,25.5469 67.8125,25.625 67.625,25.8125 C67.1719,26.2969 67.1719,26.2969 66.9844,26.3906 C66.5625,26.6563 65.875,26.7813 65.1094,26.7813 C63.0625,26.7813 61.7656,25.6875 61.7656,23.9844 L61.7656,22.8906 C61.7656,21.1094 63.0156,19.7969 64.75,19.7969 C65.3281,19.7969 65.9375,19.9531 66.4063,20.2031 C66.8906,20.4844 67.0625,20.7031 67.1563,21.1094 C67.2188,21.5156 67.25,21.6406 67.3906,21.7656 C67.5313,21.9063 67.7656,22.0156 67.9844,22.0156 C68.25,22.0156 68.5156,21.875 68.6875,21.6563 C68.7969,21.5 68.8281,21.3125 68.8281,20.8906 L68.8281,19.4688 C68.8281,19.0313 68.8125,18.9063 68.7188,18.75 C68.5625,18.4844 68.2813,18.3438 67.9844,18.3438 C67.6875,18.3438 67.4844,18.4375 67.2656,18.75 L67.0938,18.6719 Z " fill="#000000"/><text fill="#000000" font-family="sans-serif" font-size="12" lengthAdjust="spacingAndGlyphs" textLength="58" x="85.25" y="27.1543">Customer</text><line style="stroke:#A80036;stroke-width:1.5;" x1="8" x2="188" y1="39" y2="39"/><rect fill="none" height="6" style="stroke:#C82930;stroke-width:1.0;" width="6" x="15" y="47"/><text fill="#000000" font-family="sans-serif" font-size="11" lengthAdjust="spacingAndGlyphs" textLength="70" x="27" y="53.2104">String name</text><rect fill="none" height="6" style="stroke:#C82930;stroke-width:1.0;" width="6" x="15" y="59.8047"/><text fill="#000000" font-family="sans-serif" font-size="11" lengthAdjust="spacingAndGlyphs" textLength="90" x="27" y="66.0151">String password</text><rect fill="none" height="6" style="stroke:#C82930;stroke-width:1.0;" width="6" x="15" y="72.6094"/><text fill="#000000" font-family="sans-serif" font-size="11" lengthAdjust="spacingAndGlyphs" textLength="106" x="27" y="78.8198">EmailAdress email</text><rect fill="none" height="6" style="stroke:#C82930;stroke-width:1.0;" width="6" x="15" y="85.4141"/><text fill="#000000" font-family="sans-serif" font-size="11" lengthAdjust="spacingAndGlyphs" textLength="128" x="27" y="91.6245">PostalAddress address</text><line style="stroke:#A80036;stroke-width:1.5;" x1="8" x2="188" y1="98.2188" y2="98.2188"/><polygon fill="#4177AF" points="18,105.2188,14,111.2188,22,111.2188" style="stroke:#1963A0;stroke-width:1.0;"/><text fill="#000000" font-family="sans-serif" font-size="11" lengthAdjust="spacingAndGlyphs" textLength="63" x="27" y="112.4292">Customer()</text><ellipse cx="18" cy="122.0234" fill="#84BE84" rx="3" ry="3" style="stroke:#038048;stroke-width:1.0;"/><text fill="#000000" font-family="sans-serif" font-size="11" lengthAdjust="spacingAndGlyphs" textLength="98" x="27" y="125.2339">String getName()</text><ellipse cx="18" cy="134.8281" fill="#84BE84" rx="3" ry="3" style="stroke:#038048;stroke-width:1.0;"/><text fill="#000000" font-family="sans-serif" font-size="11" lengthAdjust="spacingAndGlyphs" textLength="116" x="27" y="138.0386">String getPassword()</text><ellipse cx="18" cy="147.6328" fill="#84BE84" rx="3" ry="3" style="stroke:#038048;stroke-width:1.0;"/><text fill="#000000" font-family="sans-serif" font-size="11" lengthAdjust="spacingAndGlyphs" textLength="132" x="27" y="150.8433">EmailAdress getEmail()</text><ellipse cx="18" cy="160.4375" fill="#84BE84" rx="3" ry="3" style="stroke:#038048;stroke-width:1.0;"/><text fill="#000000" font-family="sans-serif" font-size="11" lengthAdjust="spacingAndGlyphs" textLength="156" x="27" y="163.6479">PostalAddress getAddress()</text><ellipse cx="18" cy="173.2422" fill="#84BE84" rx="3" ry="3" style="stroke:#038048;stroke-width:1.0;"/><text fill="#000000" font-family="sans-serif" font-size="11" lengthAdjust="spacingAndGlyphs" textLength="89" x="27" y="176.4526">String toString()</text><rect fill="#F24D5C" height="6" style="stroke:#C82930;stroke-width:1.0;" width="6" x="15" y="183.0469"/><text fill="#000000" font-family="sans-serif" font-size="11" lengthAdjust="spacingAndGlyphs" textLength="146" x="27" y="189.2573">Customer(Builder builder)</text><ellipse cx="18" cy="198.8516" fill="#84BE84" rx="3" ry="3" style="stroke:#038048;stroke-width:1.0;"/><text fill="#000000" font-family="sans-serif" font-size="11" lengthAdjust="spacingAndGlyphs" text-decoration="underline" textLength="91" x="27" y="202.062">Builder builder()</text></a><!--MD5=[3c4b3f878feb7387d9e587241261ece6]
@startuml
class Customer [[java:fr.training.samples.spring.shop.domain.customer.Customer]] {
	-String name
	-String password
	-EmailAdress email
	-PostalAddress address
	~Customer()
	+String getName()
	+String getPassword()
	+EmailAdress getEmail()
	+PostalAddress getAddress()
	+String toString()
	-Customer(Builder builder)
	+{static}Builder builder()
}
@enduml

PlantUML version 1.2020.27beta5(Unknown compile time)
(GPL source distribution)
Java Runtime: Java(TM) SE Runtime Environment
JVM: Java HotSpot(TM) 64-Bit Server VM
Default Encoding: UTF-8
Language: en
Country: US
--></g></svg>