<?xml version="1.0" encoding="UTF-8" standalone="no"?><svg xmlns="http://www.w3.org/2000/svg" xmlns:xlink="http://www.w3.org/1999/xlink" contentScriptType="application/ecmascript" contentStyleType="text/css" height="582px" preserveAspectRatio="none" style="width:539px;height:582px;" version="1.1" viewBox="0 0 539 582" width="539px" zoomAndPan="magnify"><defs><filter height="300%" id="faxx5b8z4zv0q" width="300%" x="-1" y="-1"><feGaussianBlur result="blurOut" stdDeviation="2.0"/><feColorMatrix in="blurOut" result="blurOut2" type="matrix" values="0 0 0 0 0 0 0 0 0 0 0 0 0 0 0 0 0 0 .4 0"/><feOffset dx="4.0" dy="4.0" in="blurOut2" result="blurOut3"/><feBlend in="SourceGraphic" in2="blurOut3" mode="normal"/></filter></defs><g><!--MD5=[97d601bc32046f3410b45e1612ba9163]
class AbstractBaseEntity--><a href="java:fr.training.samples.spring.shop.domain.common.entity.AbstractBaseEntity" target="_top" title="java:fr.training.samples.spring.shop.domain.common.entity.AbstractBaseEntity" xlink:actuate="onRequest" xlink:href="java:fr.training.samples.spring.shop.domain.common.entity.AbstractBaseEntity" xlink:show="new" xlink:title="java:fr.training.samples.spring.shop.domain.common.entity.AbstractBaseEntity" xlink:type="simple"><rect fill="#FEFECE" filter="url(#faxx5b8z4zv0q)" height="163.2422" id="AbstractBaseEntity" style="stroke: #A80036; stroke-width: 1.5;" width="208" x="137.5" y="8"/><ellipse cx="178.15" cy="24" fill="#ADD1B2" rx="11" ry="11" style="stroke: #A80036; stroke-width: 1.0;"/><path d="M181.1188,29.6406 Q180.5406,29.9375 179.9,30.0859 Q179.2594,30.2344 178.5563,30.2344 Q176.0563,30.2344 174.7359,28.5859 Q173.4156,26.9375 173.4156,23.8125 Q173.4156,20.6875 174.7359,19.0313 Q176.0563,17.375 178.5563,17.375 Q179.2594,17.375 179.9078,17.5313 Q180.5563,17.6875 181.1188,17.9844 L181.1188,20.7031 Q180.4938,20.125 179.9,19.8516 Q179.3063,19.5781 178.6813,19.5781 Q177.3375,19.5781 176.65,20.6484 Q175.9625,21.7188 175.9625,23.8125 Q175.9625,25.9063 176.65,26.9766 Q177.3375,28.0469 178.6813,28.0469 Q179.3063,28.0469 179.9,27.7734 Q180.4938,27.5 181.1188,26.9219 L181.1188,29.6406 Z "/><text fill="#000000" font-family="sans-serif" font-size="12" lengthAdjust="spacingAndGlyphs" textLength="119" x="197.85" y="28.1543">AbstractBaseEntity</text><line style="stroke: #A80036; stroke-width: 1.5;" x1="138.5" x2="344.5" y1="40" y2="40"/><polygon fill="none" points="148.5,46,152.5,50,148.5,54,144.5,50" style="stroke: #B38D22; stroke-width: 1.0;"/><text fill="#000000" font-family="sans-serif" font-size="11" lengthAdjust="spacingAndGlyphs" textLength="48" x="157.5" y="54.2104">String id</text><polygon fill="none" points="148.5,58.8047,152.5,62.8047,148.5,66.8047,144.5,62.8047" style="stroke: #B38D22; stroke-width: 1.0;"/><text fill="#000000" font-family="sans-serif" font-size="11" lengthAdjust="spacingAndGlyphs" textLength="86" x="157.5" y="67.0151">Integer version</text><line style="stroke: #A80036; stroke-width: 1.5;" x1="138.5" x2="344.5" y1="73.6094" y2="73.6094"/><ellipse cx="148.5" cy="84.6094" fill="#84BE84" rx="3" ry="3" style="stroke: #038048; stroke-width: 1.0;"/><text fill="#000000" font-family="sans-serif" font-size="11" lengthAdjust="spacingAndGlyphs" textLength="74" x="157.5" y="87.8198">String getId()</text><ellipse cx="148.5" cy="97.4141" fill="#84BE84" rx="3" ry="3" style="stroke: #038048; stroke-width: 1.0;"/><text fill="#000000" font-family="sans-serif" font-size="11" lengthAdjust="spacingAndGlyphs" textLength="111" x="157.5" y="100.6245">void setId(String id)</text><ellipse cx="148.5" cy="110.2188" fill="#84BE84" rx="3" ry="3" style="stroke: #038048; stroke-width: 1.0;"/><text fill="#000000" font-family="sans-serif" font-size="11" lengthAdjust="spacingAndGlyphs" textLength="113" x="157.5" y="113.4292">Integer getVersion()</text><ellipse cx="148.5" cy="123.0234" fill="#84BE84" rx="3" ry="3" style="stroke: #038048; stroke-width: 1.0;"/><text fill="#000000" font-family="sans-serif" font-size="11" lengthAdjust="spacingAndGlyphs" textLength="182" x="157.5" y="126.2339">void setVersion(Integer version)</text><ellipse cx="148.5" cy="135.8281" fill="#84BE84" rx="3" ry="3" style="stroke: #038048; stroke-width: 1.0;"/><text fill="#000000" font-family="sans-serif" font-size="11" lengthAdjust="spacingAndGlyphs" textLength="91" x="157.5" y="139.0386">String toString()</text><ellipse cx="148.5" cy="148.6328" fill="#84BE84" rx="3" ry="3" style="stroke: #038048; stroke-width: 1.0;"/><text fill="#000000" font-family="sans-serif" font-size="11" lengthAdjust="spacingAndGlyphs" textLength="83" x="157.5" y="151.8433">int hashCode()</text><ellipse cx="148.5" cy="161.4375" fill="#84BE84" rx="3" ry="3" style="stroke: #038048; stroke-width: 1.0;"/><text fill="#000000" font-family="sans-serif" font-size="11" lengthAdjust="spacingAndGlyphs" textLength="152" x="157.5" y="164.6479">boolean equals(Object obj)</text></a><!--MD5=[2ce0c9fb7f55b1e256ab28a8ea6b25ec]
class Customer--><a href="java:fr.training.samples.spring.shop.domain.customer.Customer" target="_top" title="java:fr.training.samples.spring.shop.domain.customer.Customer" xlink:actuate="onRequest" xlink:href="java:fr.training.samples.spring.shop.domain.customer.Customer" xlink:show="new" xlink:title="java:fr.training.samples.spring.shop.domain.customer.Customer" xlink:type="simple"><rect fill="#FEFECE" filter="url(#faxx5b8z4zv0q)" height="124.8281" id="Customer" style="stroke: #A80036; stroke-width: 1.5;" width="229" x="6" y="447"/><ellipse cx="86.25" cy="463" fill="#ADD1B2" rx="11" ry="11" style="stroke: #A80036; stroke-width: 1.0;"/><path d="M89.2188,468.6406 Q88.6406,468.9375 88,469.0859 Q87.3594,469.2344 86.6563,469.2344 Q84.1563,469.2344 82.8359,467.5859 Q81.5156,465.9375 81.5156,462.8125 Q81.5156,459.6875 82.8359,458.0313 Q84.1563,456.375 86.6563,456.375 Q87.3594,456.375 88.0078,456.5313 Q88.6563,456.6875 89.2188,456.9844 L89.2188,459.7031 Q88.5938,459.125 88,458.8516 Q87.4063,458.5781 86.7813,458.5781 Q85.4375,458.5781 84.75,459.6484 Q84.0625,460.7188 84.0625,462.8125 Q84.0625,464.9063 84.75,465.9766 Q85.4375,467.0469 86.7813,467.0469 Q87.4063,467.0469 88,466.7734 Q88.5938,466.5 89.2188,465.9219 L89.2188,468.6406 Z "/><text fill="#000000" font-family="sans-serif" font-size="12" lengthAdjust="spacingAndGlyphs" textLength="60" x="106.75" y="467.1543">Customer</text><line style="stroke: #A80036; stroke-width: 1.5;" x1="7" x2="234" y1="479" y2="479"/><rect fill="none" height="6" style="stroke: #C82930; stroke-width: 1.0;" width="6" x="14" y="487"/><text fill="#000000" font-family="sans-serif" font-size="11" lengthAdjust="spacingAndGlyphs" textLength="70" x="26" y="493.2104">String name</text><rect fill="none" height="6" style="stroke: #C82930; stroke-width: 1.0;" width="6" x="14" y="499.8047"/><text fill="#000000" font-family="sans-serif" font-size="11" lengthAdjust="spacingAndGlyphs" textLength="94" x="26" y="506.0151">String password</text><line style="stroke: #A80036; stroke-width: 1.5;" x1="7" x2="234" y1="512.6094" y2="512.6094"/><ellipse cx="17" cy="523.6094" fill="#84BE84" rx="3" ry="3" style="stroke: #038048; stroke-width: 1.0;"/><text fill="#000000" font-family="sans-serif" font-size="11" lengthAdjust="spacingAndGlyphs" textLength="97" x="26" y="526.8198">String getName()</text><ellipse cx="17" cy="536.4141" fill="#84BE84" rx="3" ry="3" style="stroke: #038048; stroke-width: 1.0;"/><text fill="#000000" font-family="sans-serif" font-size="11" lengthAdjust="spacingAndGlyphs" textLength="156" x="26" y="539.6245">void setName(String name)</text><ellipse cx="17" cy="549.2188" fill="#84BE84" rx="3" ry="3" style="stroke: #038048; stroke-width: 1.0;"/><text fill="#000000" font-family="sans-serif" font-size="11" lengthAdjust="spacingAndGlyphs" textLength="120" x="26" y="552.4292">String getPassword()</text><ellipse cx="17" cy="562.0234" fill="#84BE84" rx="3" ry="3" style="stroke: #038048; stroke-width: 1.0;"/><text fill="#000000" font-family="sans-serif" font-size="11" lengthAdjust="spacingAndGlyphs" textLength="203" x="26" y="565.2339">void setPassword(String password)</text></a><!--MD5=[44a1b4afaef76c16e6c9ec4990ad0c8d]
class Item--><a href="java:fr.training.samples.spring.shop.domain.item.Item" target="_top" title="java:fr.training.samples.spring.shop.domain.item.Item" xlink:actuate="onRequest" xlink:href="java:fr.training.samples.spring.shop.domain.item.Item" xlink:show="new" xlink:title="java:fr.training.samples.spring.shop.domain.item.Item" xlink:type="simple"><rect fill="#FEFECE" filter="url(#faxx5b8z4zv0q)" height="124.8281" id="Item" style="stroke: #A80036; stroke-width: 1.5;" width="244" x="284.5" y="447"/><ellipse cx="388.75" cy="463" fill="#ADD1B2" rx="11" ry="11" style="stroke: #A80036; stroke-width: 1.0;"/><path d="M391.7188,468.6406 Q391.1406,468.9375 390.5,469.0859 Q389.8594,469.2344 389.1563,469.2344 Q386.6563,469.2344 385.3359,467.5859 Q384.0156,465.9375 384.0156,462.8125 Q384.0156,459.6875 385.3359,458.0313 Q386.6563,456.375 389.1563,456.375 Q389.8594,456.375 390.5078,456.5313 Q391.1563,456.6875 391.7188,456.9844 L391.7188,459.7031 Q391.0938,459.125 390.5,458.8516 Q389.9063,458.5781 389.2813,458.5781 Q387.9375,458.5781 387.25,459.6484 Q386.5625,460.7188 386.5625,462.8125 Q386.5625,464.9063 387.25,465.9766 Q387.9375,467.0469 389.2813,467.0469 Q389.9063,467.0469 390.5,466.7734 Q391.0938,466.5 391.7188,465.9219 L391.7188,468.6406 Z "/><text fill="#000000" font-family="sans-serif" font-size="12" lengthAdjust="spacingAndGlyphs" textLength="27" x="409.25" y="467.1543">Item</text><line style="stroke: #A80036; stroke-width: 1.5;" x1="285.5" x2="527.5" y1="479" y2="479"/><rect fill="none" height="6" style="stroke: #C82930; stroke-width: 1.0;" width="6" x="292.5" y="487"/><text fill="#000000" font-family="sans-serif" font-size="11" lengthAdjust="spacingAndGlyphs" textLength="101" x="304.5" y="493.2104">String description</text><rect fill="none" height="6" style="stroke: #C82930; stroke-width: 1.0;" width="6" x="292.5" y="499.8047"/><text fill="#000000" font-family="sans-serif" font-size="11" lengthAdjust="spacingAndGlyphs" textLength="72" x="304.5" y="506.0151">Integer price</text><line style="stroke: #A80036; stroke-width: 1.5;" x1="285.5" x2="527.5" y1="512.6094" y2="512.6094"/><ellipse cx="295.5" cy="523.6094" fill="#84BE84" rx="3" ry="3" style="stroke: #038048; stroke-width: 1.0;"/><text fill="#000000" font-family="sans-serif" font-size="11" lengthAdjust="spacingAndGlyphs" textLength="128" x="304.5" y="526.8198">String getDescription()</text><ellipse cx="295.5" cy="536.4141" fill="#84BE84" rx="3" ry="3" style="stroke: #038048; stroke-width: 1.0;"/><text fill="#000000" font-family="sans-serif" font-size="11" lengthAdjust="spacingAndGlyphs" textLength="218" x="304.5" y="539.6245">void setDescription(String description)</text><ellipse cx="295.5" cy="549.2188" fill="#84BE84" rx="3" ry="3" style="stroke: #038048; stroke-width: 1.0;"/><text fill="#000000" font-family="sans-serif" font-size="11" lengthAdjust="spacingAndGlyphs" textLength="98" x="304.5" y="552.4292">Integer getPrice()</text><ellipse cx="295.5" cy="562.0234" fill="#84BE84" rx="3" ry="3" style="stroke: #038048; stroke-width: 1.0;"/><text fill="#000000" font-family="sans-serif" font-size="11" lengthAdjust="spacingAndGlyphs" textLength="153" x="304.5" y="565.2339">void setPrice(Integer price)</text></a><!--MD5=[cf4d6237fcae255cd2e1656cf84a30e2]
class Order--><a href="java:fr.training.samples.spring.shop.domain.order.Order" target="_top" title="java:fr.training.samples.spring.shop.domain.order.Order" xlink:actuate="onRequest" xlink:href="java:fr.training.samples.spring.shop.domain.order.Order" xlink:show="new" xlink:title="java:fr.training.samples.spring.shop.domain.order.Order" xlink:type="simple"><rect fill="#FEFECE" filter="url(#faxx5b8z4zv0q)" height="137.6328" id="Order" style="stroke: #A80036; stroke-width: 1.5;" width="249" x="117" y="232"/><ellipse cx="219.75" cy="248" fill="#ADD1B2" rx="11" ry="11" style="stroke: #A80036; stroke-width: 1.0;"/><path d="M222.7188,253.6406 Q222.1406,253.9375 221.5,254.0859 Q220.8594,254.2344 220.1563,254.2344 Q217.6563,254.2344 216.3359,252.5859 Q215.0156,250.9375 215.0156,247.8125 Q215.0156,244.6875 216.3359,243.0313 Q217.6563,241.375 220.1563,241.375 Q220.8594,241.375 221.5078,241.5313 Q222.1563,241.6875 222.7188,241.9844 L222.7188,244.7031 Q222.0938,244.125 221.5,243.8516 Q220.9063,243.5781 220.2813,243.5781 Q218.9375,243.5781 218.25,244.6484 Q217.5625,245.7188 217.5625,247.8125 Q217.5625,249.9063 218.25,250.9766 Q218.9375,252.0469 220.2813,252.0469 Q220.9063,252.0469 221.5,251.7734 Q222.0938,251.5 222.7188,250.9219 L222.7188,253.6406 Z "/><text fill="#000000" font-family="sans-serif" font-size="12" lengthAdjust="spacingAndGlyphs" textLength="35" x="240.25" y="252.1543">Order</text><line style="stroke: #A80036; stroke-width: 1.5;" x1="118" x2="365" y1="264" y2="264"/><rect fill="none" height="6" style="stroke: #C82930; stroke-width: 1.0;" width="6" x="125" y="272"/><text fill="#000000" font-family="sans-serif" font-size="11" lengthAdjust="spacingAndGlyphs" textLength="69" x="137" y="278.2104">Integer total</text><line style="stroke: #A80036; stroke-width: 1.5;" x1="118" x2="365" y1="284.8047" y2="284.8047"/><ellipse cx="128" cy="295.8047" fill="#84BE84" rx="3" ry="3" style="stroke: #038048; stroke-width: 1.0;"/><text fill="#000000" font-family="sans-serif" font-size="11" lengthAdjust="spacingAndGlyphs" textLength="142" x="137" y="299.0151">Customer getCustomer()</text><ellipse cx="128" cy="308.6094" fill="#84BE84" rx="3" ry="3" style="stroke: #038048; stroke-width: 1.0;"/><text fill="#000000" font-family="sans-serif" font-size="11" lengthAdjust="spacingAndGlyphs" textLength="223" x="137" y="311.8198">void setCustomer(Customer customer)</text><ellipse cx="128" cy="321.4141" fill="#84BE84" rx="3" ry="3" style="stroke: #038048; stroke-width: 1.0;"/><text fill="#000000" font-family="sans-serif" font-size="11" lengthAdjust="spacingAndGlyphs" textLength="125" x="137" y="324.6245">List&lt;Item&gt; getItems()</text><ellipse cx="128" cy="334.2188" fill="#84BE84" rx="3" ry="3" style="stroke: #038048; stroke-width: 1.0;"/><text fill="#000000" font-family="sans-serif" font-size="11" lengthAdjust="spacingAndGlyphs" textLength="98" x="137" y="337.4292">Integer getTotal()</text><ellipse cx="128" cy="347.0234" fill="#84BE84" rx="3" ry="3" style="stroke: #038048; stroke-width: 1.0;"/><text fill="#000000" font-family="sans-serif" font-size="11" lengthAdjust="spacingAndGlyphs" textLength="150" x="137" y="350.2339">void setTotal(Integer total)</text><ellipse cx="128" cy="359.8281" fill="#84BE84" rx="3" ry="3" style="stroke: #038048; stroke-width: 1.0;"/><text fill="#000000" font-family="sans-serif" font-size="11" lengthAdjust="spacingAndGlyphs" textLength="135" x="137" y="363.0386">void addItem(Item item)</text></a><!--MD5=[6ea4916a070ef33b500405d5268ab379]
reverse link AbstractBaseEntity to Customer--><path d="M126.4376,186.6591 C115.5618,200.7304 106.1378,215.9349 99.5,232 C70.8102,301.4359 84.7222,388.9048 100.0669,446.8803 " fill="none" id="AbstractBaseEntity&lt;-Customer" style="stroke: #A80036; stroke-width: 1.0;"/><polygon fill="none" points="121.0817,182.1518,139.2626,171.268,131.8371,191.114,121.0817,182.1518" style="stroke: #A80036; stroke-width: 1.0;"/><!--MD5=[e9de55231ae138d1993e5ded2f46a7ae]
reverse link AbstractBaseEntity to Item--><path d="M354.7938,186.6086 C366.09,200.756 376.0973,215.9927 383.5,232 C415.1548,300.4488 416.7711,388.5219 413.2037,446.8845 " fill="none" id="AbstractBaseEntity&lt;-Item" style="stroke: #A80036; stroke-width: 1.0;"/><polygon fill="none" points="349.2279,190.8702,341.5624,171.1156,359.8739,181.7782,349.2279,190.8702" style="stroke: #A80036; stroke-width: 1.0;"/><!--MD5=[65622aaf8fcfd7b10df86db327daabc8]
link Order to Customer--><path d="M181.9765,370.2237 C174.9401,379.9077 168.2349,389.981 162.5,400 C155.0028,413.0977 148.3261,427.7904 142.6233,442.0565 " fill="none" id="Order-&gt;Customer" style="stroke: #A80036; stroke-width: 1.0;"/><polygon fill="#A80036" points="140.7269,446.8753,147.745,439.9654,142.558,442.2227,140.3008,437.0357,140.7269,446.8753" style="stroke: #A80036; stroke-width: 1.0;"/><text fill="#000000" font-family="sans-serif" font-size="13" lengthAdjust="spacingAndGlyphs" textLength="61" x="163.5" y="413.0669">customer</text><text fill="#000000" font-family="sans-serif" font-size="13" lengthAdjust="spacingAndGlyphs" textLength="8" x="134.6031" y="435.8516">1</text><!--MD5=[c1d53365aa981b4855aab454c64fdd90]
link Order to Item--><path d="M296.2134,370.1379 C314.7472,393.5578 335.3994,419.6547 353.7753,442.8752 " fill="none" id="Order-&gt;Item" style="stroke: #A80036; stroke-width: 1.0;"/><polygon fill="#A80036" points="356.9408,446.8752,354.4924,437.3355,353.838,442.9544,348.2191,442.3,356.9408,446.8752" style="stroke: #A80036; stroke-width: 1.0;"/><text fill="#000000" font-family="sans-serif" font-size="13" lengthAdjust="spacingAndGlyphs" textLength="36" x="329.5" y="413.0669">items</text><text fill="#000000" font-family="sans-serif" font-size="13" lengthAdjust="spacingAndGlyphs" textLength="7" x="343.8058" y="435.8515">*</text><!--MD5=[3f8c0e64b45e3c699d54fb808a3fa2b9]
reverse link AbstractBaseEntity to Order--><path d="M241.5,191.7137 C241.5,205.2995 241.5,218.9631 241.5,231.8065 " fill="none" id="AbstractBaseEntity&lt;-Order" style="stroke: #A80036; stroke-width: 1.0;"/><polygon fill="none" points="234.5001,191.2715,241.5,171.2714,248.5001,191.2714,234.5001,191.2715" style="stroke: #A80036; stroke-width: 1.0;"/><!--MD5=[ca6bf9e0906b600fc713a39671a028cd]
@startuml
abstract class AbstractBaseEntity [[java:fr.training.samples.spring.shop.domain.common.entity.AbstractBaseEntity]] {
	#String id
	#Integer version
	+String getId()
	+void setId(String id)
	+Integer getVersion()
	+void setVersion(Integer version)
	+String toString()
	+int hashCode()
	+boolean equals(Object obj)
}
class Customer [[java:fr.training.samples.spring.shop.domain.customer.Customer]] {
	-String name
	-String password
	+String getName()
	+void setName(String name)
	+String getPassword()
	+void setPassword(String password)
}
class AbstractBaseEntity [[java:fr.training.samples.spring.shop.domain.common.entity.AbstractBaseEntity]] {
}
AbstractBaseEntity <|- - Customer
class Item [[java:fr.training.samples.spring.shop.domain.item.Item]] {
	-String description
	-Integer price
	+String getDescription()
	+void setDescription(String description)
	+Integer getPrice()
	+void setPrice(Integer price)
}
class AbstractBaseEntity [[java:fr.training.samples.spring.shop.domain.common.entity.AbstractBaseEntity]] {
}
AbstractBaseEntity <|- - Item
class Order [[java:fr.training.samples.spring.shop.domain.order.Order]] {
	-Integer total
	+Customer getCustomer()
	+void setCustomer(Customer customer)
	+List<Item> getItems()
	+Integer getTotal()
	+void setTotal(Integer total)
	+void addItem(Item item)
}
class Customer [[java:fr.training.samples.spring.shop.domain.customer.Customer]] {
}
Order - -> "1" Customer : customer
class Item [[java:fr.training.samples.spring.shop.domain.item.Item]] {
}
Order - -> "*" Item : items
class AbstractBaseEntity [[java:fr.training.samples.spring.shop.domain.common.entity.AbstractBaseEntity]] {
}
AbstractBaseEntity <|- - Order
@enduml

PlantUML version 1.2019.12(Sun Nov 03 10:24:54 UTC 2019)
(GPL source distribution)
Java Runtime: OpenJDK Runtime Environment
JVM: OpenJDK 64-Bit Server VM
Java Version: 1.8.0_232-heroku-b09
Operating System: Linux
Default Encoding: UTF-8
Language: en
Country: US
--></g></svg>