<?xml version="1.0" encoding="UTF-8" standalone="no"?><svg xmlns="http://www.w3.org/2000/svg" xmlns:xlink="http://www.w3.org/1999/xlink" contentScriptType="application/ecmascript" contentStyleType="text/css" height="390px" preserveAspectRatio="none" style="width:595px;height:390px;" version="1.1" viewBox="0 0 595 390" width="595px" zoomAndPan="magnify"><defs><filter height="300%" id="fepgu9p9vbyf7" width="300%" x="-1" y="-1"><feGaussianBlur result="blurOut" stdDeviation="2.0"/><feColorMatrix in="blurOut" result="blurOut2" type="matrix" values="0 0 0 0 0 0 0 0 0 0 0 0 0 0 0 0 0 0 .4 0"/><feOffset dx="4.0" dy="4.0" in="blurOut2" result="blurOut3"/><feBlend in="SourceGraphic" in2="blurOut3" mode="normal"/></filter></defs><g><!--MD5=[ce1398305a9b40be4cd6d90fd229e3b0]
class ItemRepository--><a href="java:fr.training.samples.spring.shop.domain.item.ItemRepository" target="_top" title="java:fr.training.samples.spring.shop.domain.item.ItemRepository" xlink:actuate="onRequest" xlink:href="java:fr.training.samples.spring.shop.domain.item.ItemRepository" xlink:show="new" xlink:title="java:fr.training.samples.spring.shop.domain.item.ItemRepository" xlink:type="simple"><rect fill="#FEFECE" filter="url(#fepgu9p9vbyf7)" height="86.4141" id="ItemRepository" style="stroke: #A80036; stroke-width: 1.5;" width="167" x="98" y="8"/><ellipse cx="131.9" cy="24" fill="#B4A7E5" rx="11" ry="11" style="stroke: #A80036; stroke-width: 1.0;"/><path d="M127.8219,19.7656 L127.8219,17.6094 L135.2125,17.6094 L135.2125,19.7656 L132.7438,19.7656 L132.7438,27.8438 L135.2125,27.8438 L135.2125,30 L127.8219,30 L127.8219,27.8438 L130.2906,27.8438 L130.2906,19.7656 L127.8219,19.7656 Z "/><text fill="#000000" font-family="sans-serif" font-size="12" font-style="italic" lengthAdjust="spacingAndGlyphs" textLength="93" x="150.1" y="28.1543">ItemRepository</text><line style="stroke: #A80036; stroke-width: 1.5;" x1="99" x2="264" y1="40" y2="40"/><line style="stroke: #A80036; stroke-width: 1.5;" x1="99" x2="264" y1="48" y2="48"/><text fill="#000000" font-family="sans-serif" font-size="11" lengthAdjust="spacingAndGlyphs" textLength="155" x="104" y="62.2104">Item findById(String itemId)</text><text fill="#000000" font-family="sans-serif" font-size="11" lengthAdjust="spacingAndGlyphs" textLength="116" x="104" y="75.0151">void save(Item item)</text><text fill="#000000" font-family="sans-serif" font-size="11" lengthAdjust="spacingAndGlyphs" textLength="109" x="104" y="87.8198">List&lt;Item&gt; findAll()</text></a><!--MD5=[b6708591d0c1fda7b040ebb2b6589dd4]
class ItemJpaRepository--><a href="java:fr.training.samples.spring.shop.infrastructure.item.ItemJpaRepository" target="_top" title="java:fr.training.samples.spring.shop.infrastructure.item.ItemJpaRepository" xlink:actuate="onRequest" xlink:href="java:fr.training.samples.spring.shop.infrastructure.item.ItemJpaRepository" xlink:show="new" xlink:title="java:fr.training.samples.spring.shop.infrastructure.item.ItemJpaRepository" xlink:type="simple"><rect fill="#FEFECE" filter="url(#fepgu9p9vbyf7)" height="48" id="ItemJpaRepository" style="stroke: #A80036; stroke-width: 1.5;" width="144" x="302.5" y="331"/><ellipse cx="317.5" cy="347" fill="#B4A7E5" rx="11" ry="11" style="stroke: #A80036; stroke-width: 1.0;"/><path d="M313.4219,342.7656 L313.4219,340.6094 L320.8125,340.6094 L320.8125,342.7656 L318.3438,342.7656 L318.3438,350.8438 L320.8125,350.8438 L320.8125,353 L313.4219,353 L313.4219,350.8438 L315.8906,350.8438 L315.8906,342.7656 L313.4219,342.7656 Z "/><text fill="#000000" font-family="sans-serif" font-size="12" font-style="italic" lengthAdjust="spacingAndGlyphs" textLength="112" x="331.5" y="351.1543">ItemJpaRepository</text><line style="stroke: #A80036; stroke-width: 1.5;" x1="303.5" x2="445.5" y1="363" y2="363"/><line style="stroke: #A80036; stroke-width: 1.5;" x1="303.5" x2="445.5" y1="371" y2="371"/></a><!--MD5=[decb0611dfc8100fc68f8c0ebf61f0f7]
class JpaRepository_Item_String_--><rect fill="#FEFECE" filter="url(#fepgu9p9vbyf7)" height="48" id="JpaRepository_Item_String_" style="stroke: #A80036; stroke-width: 1.5;" width="189" x="392" y="180.5"/><ellipse cx="407" cy="196.5" fill="#B4A7E5" rx="11" ry="11" style="stroke: #A80036; stroke-width: 1.0;"/><path d="M402.9219,192.2656 L402.9219,190.1094 L410.3125,190.1094 L410.3125,192.2656 L407.8438,192.2656 L407.8438,200.3438 L410.3125,200.3438 L410.3125,202.5 L402.9219,202.5 L402.9219,200.3438 L405.3906,200.3438 L405.3906,192.2656 L402.9219,192.2656 Z "/><text fill="#000000" font-family="sans-serif" font-size="12" font-style="italic" lengthAdjust="spacingAndGlyphs" textLength="85" x="421" y="200.6543">JpaRepository</text><rect fill="#FFFFFF" height="15.9688" style="stroke: #000000; stroke-width: 1.0; stroke-dasharray: 2.0,2.0;" width="70" x="514" y="177.5"/><text fill="#000000" font-family="sans-serif" font-size="12" font-style="italic" lengthAdjust="spacingAndGlyphs" textLength="68" x="515" y="189.6387">Item,String</text><line style="stroke: #A80036; stroke-width: 1.5;" x1="393" x2="580" y1="212.5" y2="212.5"/><line style="stroke: #A80036; stroke-width: 1.5;" x1="393" x2="580" y1="220.5" y2="220.5"/><!--MD5=[f8ebb6b2d192550d755040e6e93498f9]
class ItemRepositoryImpl--><a href="java:fr.training.samples.spring.shop.infrastructure.item.ItemRepositoryImpl" target="_top" title="java:fr.training.samples.spring.shop.infrastructure.item.ItemRepositoryImpl" xlink:actuate="onRequest" xlink:href="java:fr.training.samples.spring.shop.infrastructure.item.ItemRepositoryImpl" xlink:show="new" xlink:title="java:fr.training.samples.spring.shop.infrastructure.item.ItemRepositoryImpl" xlink:type="simple"><rect fill="#FEFECE" filter="url(#fepgu9p9vbyf7)" height="99.2188" id="ItemRepositoryImpl" style="stroke: #A80036; stroke-width: 1.5;" width="351" x="6" y="155"/><ellipse cx="118.25" cy="171" fill="#ADD1B2" rx="11" ry="11" style="stroke: #A80036; stroke-width: 1.0;"/><path d="M121.2188,176.6406 Q120.6406,176.9375 120,177.0859 Q119.3594,177.2344 118.6563,177.2344 Q116.1563,177.2344 114.8359,175.5859 Q113.5156,173.9375 113.5156,170.8125 Q113.5156,167.6875 114.8359,166.0313 Q116.1563,164.375 118.6563,164.375 Q119.3594,164.375 120.0078,164.5313 Q120.6563,164.6875 121.2188,164.9844 L121.2188,167.7031 Q120.5938,167.125 120,166.8516 Q119.4063,166.5781 118.7813,166.5781 Q117.4375,166.5781 116.75,167.6484 Q116.0625,168.7188 116.0625,170.8125 Q116.0625,172.9063 116.75,173.9766 Q117.4375,175.0469 118.7813,175.0469 Q119.4063,175.0469 120,174.7734 Q120.5938,174.5 121.2188,173.9219 L121.2188,176.6406 Z "/><text fill="#000000" font-family="sans-serif" font-size="12" lengthAdjust="spacingAndGlyphs" textLength="118" x="138.75" y="175.1543">ItemRepositoryImpl</text><line style="stroke: #A80036; stroke-width: 1.5;" x1="7" x2="356" y1="187" y2="187"/><line style="stroke: #A80036; stroke-width: 1.5;" x1="7" x2="356" y1="195" y2="195"/><ellipse cx="17" cy="206" fill="#84BE84" rx="3" ry="3" style="stroke: #038048; stroke-width: 1.0;"/><text fill="#000000" font-family="sans-serif" font-size="11" lengthAdjust="spacingAndGlyphs" textLength="325" x="26" y="209.2104">ItemRepositoryImpl(ItemJpaRepository itemJpaRepository)</text><ellipse cx="17" cy="218.8047" fill="#84BE84" rx="3" ry="3" style="stroke: #038048; stroke-width: 1.0;"/><text fill="#000000" font-family="sans-serif" font-size="11" lengthAdjust="spacingAndGlyphs" textLength="155" x="26" y="222.0151">Item findById(String itemId)</text><ellipse cx="17" cy="231.6094" fill="#84BE84" rx="3" ry="3" style="stroke: #038048; stroke-width: 1.0;"/><text fill="#000000" font-family="sans-serif" font-size="11" lengthAdjust="spacingAndGlyphs" textLength="116" x="26" y="234.8198">void save(Item item)</text><ellipse cx="17" cy="244.4141" fill="#84BE84" rx="3" ry="3" style="stroke: #038048; stroke-width: 1.0;"/><text fill="#000000" font-family="sans-serif" font-size="11" lengthAdjust="spacingAndGlyphs" textLength="109" x="26" y="247.6245">List&lt;Item&gt; findAll()</text></a><!--MD5=[976fa19a933e9b2ead766d3ff1478a96]
reverse link JpaRepository_Item_String_ to ItemJpaRepository--><path d="M456.3893,244.9613 C435.9694,272.4005 409.6609,307.7526 392.4501,330.8796 " fill="none" id="JpaRepository_Item_String_&lt;-ItemJpaRepository" style="stroke: #A80036; stroke-width: 1.0;"/><polygon fill="none" points="450.9494,240.546,468.5053,228.6804,462.1806,248.9042,450.9494,240.546" style="stroke: #A80036; stroke-width: 1.0;"/><!--MD5=[a2bb339f799fd533d62d16f0fab1af4c]
link ItemRepositoryImpl to ItemJpaRepository--><path d="M235.0335,254.1958 C252.5806,269.7357 272.4671,286.5774 291.5,301 C303.81,310.3282 317.7024,319.7599 330.5504,328.0735 " fill="none" id="ItemRepositoryImpl-&gt;ItemJpaRepository" style="stroke: #A80036; stroke-width: 1.0;"/><polygon fill="#A80036" points="334.8637,330.8483,329.459,322.6149,330.6588,328.143,325.1306,329.3428,334.8637,330.8483" style="stroke: #A80036; stroke-width: 1.0;"/><text fill="#000000" font-family="sans-serif" font-size="13" lengthAdjust="spacingAndGlyphs" textLength="115" x="292.5" y="297.0669">itemJpaRepository</text><text fill="#000000" font-family="sans-serif" font-size="13" lengthAdjust="spacingAndGlyphs" textLength="8" x="315.6819" y="319.8215">1</text><!--MD5=[dc88d656d996e752b295d8172c985233]
reverse link ItemRepository to ItemRepositoryImpl--><path d="M181.5,114.596 C181.5,128.0445 181.5,142.0484 181.5,154.889 " fill="none" id="ItemRepository&lt;-ItemRepositoryImpl" style="stroke: #A80036; stroke-width: 1.0; stroke-dasharray: 7.0,7.0;"/><polygon fill="none" points="174.5001,114.1668,181.5,94.1668,188.5001,114.1668,174.5001,114.1668" style="stroke: #A80036; stroke-width: 1.0;"/><!--MD5=[67fb9095b2fbe09d9e06465fd53bd17d]
@startuml
interface ItemRepository [[java:fr.training.samples.spring.shop.domain.item.ItemRepository]] {
	Item findById(String itemId)
	void save(Item item)
	List<Item> findAll()
}
interface ItemJpaRepository [[java:fr.training.samples.spring.shop.infrastructure.item.ItemJpaRepository]] {
}
interface "JpaRepository<Item,String>" as JpaRepository_Item_String_ {
}
JpaRepository_Item_String_ <|- - ItemJpaRepository
class ItemRepositoryImpl [[java:fr.training.samples.spring.shop.infrastructure.item.ItemRepositoryImpl]] {
	+ItemRepositoryImpl(ItemJpaRepository itemJpaRepository)
	+Item findById(String itemId)
	+void save(Item item)
	+List<Item> findAll()
}
interface ItemJpaRepository [[java:fr.training.samples.spring.shop.infrastructure.item.ItemJpaRepository]] {
}
ItemRepositoryImpl - -> "1" ItemJpaRepository : itemJpaRepository
interface ItemRepository [[java:fr.training.samples.spring.shop.domain.item.ItemRepository]] {
}
ItemRepository <|.. ItemRepositoryImpl
@enduml

PlantUML version 1.2019.12(Sun Nov 03 10:24:54 UTC 2019)
(GPL source distribution)
Java Runtime: OpenJDK Runtime Environment
JVM: OpenJDK 64-Bit Server VM
Java Version: 1.8.0_232-heroku-b09
Operating System: Linux
Default Encoding: UTF-8
Language: en
Country: US
--></g></svg>