<?xml version="1.0" encoding="UTF-8" standalone="no"?><svg xmlns="http://www.w3.org/2000/svg" xmlns:xlink="http://www.w3.org/1999/xlink" contentScriptType="application/ecmascript" contentStyleType="text/css" height="365px" preserveAspectRatio="none" style="width:625px;height:365px;" version="1.1" viewBox="0 0 625 365" width="625px" zoomAndPan="magnify"><defs><filter height="300%" id="f1aczshcpozj5h" width="300%" x="-1" y="-1"><feGaussianBlur result="blurOut" stdDeviation="2.0"/><feColorMatrix in="blurOut" result="blurOut2" type="matrix" values="0 0 0 0 0 0 0 0 0 0 0 0 0 0 0 0 0 0 .4 0"/><feOffset dx="4.0" dy="4.0" in="blurOut2" result="blurOut3"/><feBlend in="SourceGraphic" in2="blurOut3" mode="normal"/></filter></defs><g><!--MD5=[708e328039b60d50c6285936843ac334]
class OrderRepository--><a href="java:fr.training.samples.spring.shop.domain.order.OrderRepository" target="_top" title="java:fr.training.samples.spring.shop.domain.order.OrderRepository" xlink:actuate="onRequest" xlink:href="java:fr.training.samples.spring.shop.domain.order.OrderRepository" xlink:show="new" xlink:title="java:fr.training.samples.spring.shop.domain.order.OrderRepository" xlink:type="simple"><rect fill="#FEFECE" filter="url(#f1aczshcpozj5h)" height="73.6094" id="OrderRepository" style="stroke: #A80036; stroke-width: 1.5;" width="181" x="102" y="8"/><ellipse cx="138.6" cy="24" fill="#B4A7E5" rx="11" ry="11" style="stroke: #A80036; stroke-width: 1.0;"/><path d="M134.5219,19.7656 L134.5219,17.6094 L141.9125,17.6094 L141.9125,19.7656 L139.4438,19.7656 L139.4438,27.8438 L141.9125,27.8438 L141.9125,30 L134.5219,30 L134.5219,27.8438 L136.9906,27.8438 L136.9906,19.7656 L134.5219,19.7656 Z "/><text fill="#000000" font-family="sans-serif" font-size="12" font-style="italic" lengthAdjust="spacingAndGlyphs" textLength="101" x="157.4" y="28.1543">OrderRepository</text><line style="stroke: #A80036; stroke-width: 1.5;" x1="103" x2="282" y1="40" y2="40"/><line style="stroke: #A80036; stroke-width: 1.5;" x1="103" x2="282" y1="48" y2="48"/><text fill="#000000" font-family="sans-serif" font-size="11" lengthAdjust="spacingAndGlyphs" textLength="169" x="108" y="62.2104">Order findById(String orderId)</text><text fill="#000000" font-family="sans-serif" font-size="11" lengthAdjust="spacingAndGlyphs" textLength="130" x="108" y="75.0151">void save(Order order)</text></a><!--MD5=[0c800ea52788ac6e3042d9ca30f7dfdc]
class OrderJpaRepository--><a href="java:fr.training.samples.spring.shop.infrastructure.order.OrderJpaRepository" target="_top" title="java:fr.training.samples.spring.shop.infrastructure.order.OrderJpaRepository" xlink:actuate="onRequest" xlink:href="java:fr.training.samples.spring.shop.infrastructure.order.OrderJpaRepository" xlink:show="new" xlink:title="java:fr.training.samples.spring.shop.infrastructure.order.OrderJpaRepository" xlink:type="simple"><rect fill="#FEFECE" filter="url(#f1aczshcpozj5h)" height="48" id="OrderJpaRepository" style="stroke: #A80036; stroke-width: 1.5;" width="152" x="319.5" y="306"/><ellipse cx="334.5" cy="322" fill="#B4A7E5" rx="11" ry="11" style="stroke: #A80036; stroke-width: 1.0;"/><path d="M330.4219,317.7656 L330.4219,315.6094 L337.8125,315.6094 L337.8125,317.7656 L335.3438,317.7656 L335.3438,325.8438 L337.8125,325.8438 L337.8125,328 L330.4219,328 L330.4219,325.8438 L332.8906,325.8438 L332.8906,317.7656 L330.4219,317.7656 Z "/><text fill="#000000" font-family="sans-serif" font-size="12" font-style="italic" lengthAdjust="spacingAndGlyphs" textLength="120" x="348.5" y="326.1543">OrderJpaRepository</text><line style="stroke: #A80036; stroke-width: 1.5;" x1="320.5" x2="470.5" y1="338" y2="338"/><line style="stroke: #A80036; stroke-width: 1.5;" x1="320.5" x2="470.5" y1="346" y2="346"/></a><!--MD5=[8fb3a0decb830499a5cae24f2361b883]
class JpaRepository_Order_String_--><rect fill="#FEFECE" filter="url(#f1aczshcpozj5h)" height="48" id="JpaRepository_Order_String_" style="stroke: #A80036; stroke-width: 1.5;" width="197" x="414" y="162"/><ellipse cx="429" cy="178" fill="#B4A7E5" rx="11" ry="11" style="stroke: #A80036; stroke-width: 1.0;"/><path d="M424.9219,173.7656 L424.9219,171.6094 L432.3125,171.6094 L432.3125,173.7656 L429.8438,173.7656 L429.8438,181.8438 L432.3125,181.8438 L432.3125,184 L424.9219,184 L424.9219,181.8438 L427.3906,181.8438 L427.3906,173.7656 L424.9219,173.7656 Z "/><text fill="#000000" font-family="sans-serif" font-size="12" font-style="italic" lengthAdjust="spacingAndGlyphs" textLength="85" x="443" y="182.1543">JpaRepository</text><rect fill="#FFFFFF" height="15.9688" style="stroke: #000000; stroke-width: 1.0; stroke-dasharray: 2.0,2.0;" width="78" x="536" y="159"/><text fill="#000000" font-family="sans-serif" font-size="12" font-style="italic" lengthAdjust="spacingAndGlyphs" textLength="76" x="537" y="171.1387">Order,String</text><line style="stroke: #A80036; stroke-width: 1.5;" x1="415" x2="610" y1="194" y2="194"/><line style="stroke: #A80036; stroke-width: 1.5;" x1="415" x2="610" y1="202" y2="202"/><!--MD5=[eabceebcb0feddf9063cff6e5a79cb5b]
class OrderRepositoryImpl--><a href="java:fr.training.samples.spring.shop.infrastructure.order.OrderRepositoryImpl" target="_top" title="java:fr.training.samples.spring.shop.infrastructure.order.OrderRepositoryImpl" xlink:actuate="onRequest" xlink:href="java:fr.training.samples.spring.shop.infrastructure.order.OrderRepositoryImpl" xlink:show="new" xlink:title="java:fr.training.samples.spring.shop.infrastructure.order.OrderRepositoryImpl" xlink:type="simple"><rect fill="#FEFECE" filter="url(#f1aczshcpozj5h)" height="86.4141" id="OrderRepositoryImpl" style="stroke: #A80036; stroke-width: 1.5;" width="373" x="6" y="143"/><ellipse cx="125.25" cy="159" fill="#ADD1B2" rx="11" ry="11" style="stroke: #A80036; stroke-width: 1.0;"/><path d="M128.2188,164.6406 Q127.6406,164.9375 127,165.0859 Q126.3594,165.2344 125.6563,165.2344 Q123.1563,165.2344 121.8359,163.5859 Q120.5156,161.9375 120.5156,158.8125 Q120.5156,155.6875 121.8359,154.0313 Q123.1563,152.375 125.6563,152.375 Q126.3594,152.375 127.0078,152.5313 Q127.6563,152.6875 128.2188,152.9844 L128.2188,155.7031 Q127.5938,155.125 127,154.8516 Q126.4063,154.5781 125.7813,154.5781 Q124.4375,154.5781 123.75,155.6484 Q123.0625,156.7188 123.0625,158.8125 Q123.0625,160.9063 123.75,161.9766 Q124.4375,163.0469 125.7813,163.0469 Q126.4063,163.0469 127,162.7734 Q127.5938,162.5 128.2188,161.9219 L128.2188,164.6406 Z "/><text fill="#000000" font-family="sans-serif" font-size="12" lengthAdjust="spacingAndGlyphs" textLength="126" x="145.75" y="163.1543">OrderRepositoryImpl</text><line style="stroke: #A80036; stroke-width: 1.5;" x1="7" x2="378" y1="175" y2="175"/><line style="stroke: #A80036; stroke-width: 1.5;" x1="7" x2="378" y1="183" y2="183"/><ellipse cx="17" cy="194" fill="#84BE84" rx="3" ry="3" style="stroke: #038048; stroke-width: 1.0;"/><text fill="#000000" font-family="sans-serif" font-size="11" lengthAdjust="spacingAndGlyphs" textLength="347" x="26" y="197.2104">OrderRepositoryImpl(OrderJpaRepository orderJpaRepository)</text><ellipse cx="17" cy="206.8047" fill="#84BE84" rx="3" ry="3" style="stroke: #038048; stroke-width: 1.0;"/><text fill="#000000" font-family="sans-serif" font-size="11" lengthAdjust="spacingAndGlyphs" textLength="169" x="26" y="210.0151">Order findById(String orderId)</text><ellipse cx="17" cy="219.6094" fill="#84BE84" rx="3" ry="3" style="stroke: #038048; stroke-width: 1.0;"/><text fill="#000000" font-family="sans-serif" font-size="11" lengthAdjust="spacingAndGlyphs" textLength="130" x="26" y="222.8198">void save(Order order)</text></a><!--MD5=[1660ee26cb5655d62643bee48e179e32]
reverse link JpaRepository_Order_String_ to OrderJpaRepository--><path d="M480.17,225.7908 C459.3205,251.4517 432.8847,283.9881 415.1471,305.819 " fill="none" id="JpaRepository_Order_String_&lt;-OrderJpaRepository" style="stroke: #A80036; stroke-width: 1.0;"/><polygon fill="none" points="474.8721,221.2105,492.9168,210.1024,485.7377,230.0388,474.8721,221.2105" style="stroke: #A80036; stroke-width: 1.0;"/><!--MD5=[52e4530ae981428069cd2dc3dfd10cba]
link OrderRepositoryImpl to OrderJpaRepository--><path d="M246.4597,229.2178 C266.015,244.4212 288.4684,261.3572 309.5,276 C322.6291,285.1408 337.2559,294.5863 350.6692,302.9718 " fill="none" id="OrderRepositoryImpl-&gt;OrderJpaRepository" style="stroke: #A80036; stroke-width: 1.0;"/><polygon fill="#A80036" points="355.1676,305.773,349.6422,297.6201,350.9233,303.13,345.4134,304.411,355.1676,305.773" style="stroke: #A80036; stroke-width: 1.0;"/><text fill="#000000" font-family="sans-serif" font-size="13" lengthAdjust="spacingAndGlyphs" textLength="120" x="310.5" y="272.0669">orderJpaRepository</text><text fill="#000000" font-family="sans-serif" font-size="13" lengthAdjust="spacingAndGlyphs" textLength="8" x="336.3616" y="295.1226">1</text><!--MD5=[611ebfac716b8cc822021940474bd05e]
reverse link OrderRepository to OrderRepositoryImpl--><path d="M192.5,102.4616 C192.5,115.992 192.5,130.1863 192.5,142.9562 " fill="none" id="OrderRepository&lt;-OrderRepositoryImpl" style="stroke: #A80036; stroke-width: 1.0; stroke-dasharray: 7.0,7.0;"/><polygon fill="none" points="185.5001,102.0461,192.5,82.0461,199.5001,102.0461,185.5001,102.0461" style="stroke: #A80036; stroke-width: 1.0;"/><!--MD5=[54ef9dd5b1524b504304ed61772a61a8]
@startuml
interface OrderRepository [[java:fr.training.samples.spring.shop.domain.order.OrderRepository]] {
	Order findById(String orderId)
	void save(Order order)
}
interface OrderJpaRepository [[java:fr.training.samples.spring.shop.infrastructure.order.OrderJpaRepository]] {
}
interface "JpaRepository<Order,String>" as JpaRepository_Order_String_ {
}
JpaRepository_Order_String_ <|- - OrderJpaRepository
class OrderRepositoryImpl [[java:fr.training.samples.spring.shop.infrastructure.order.OrderRepositoryImpl]] {
	+OrderRepositoryImpl(OrderJpaRepository orderJpaRepository)
	+Order findById(String orderId)
	+void save(Order order)
}
interface OrderJpaRepository [[java:fr.training.samples.spring.shop.infrastructure.order.OrderJpaRepository]] {
}
OrderRepositoryImpl - -> "1" OrderJpaRepository : orderJpaRepository
interface OrderRepository [[java:fr.training.samples.spring.shop.domain.order.OrderRepository]] {
}
OrderRepository <|.. OrderRepositoryImpl
@enduml

PlantUML version 1.2019.12(Sun Nov 03 10:24:54 UTC 2019)
(GPL source distribution)
Java Runtime: OpenJDK Runtime Environment
JVM: OpenJDK 64-Bit Server VM
Java Version: 1.8.0_232-heroku-b09
Operating System: Linux
Default Encoding: UTF-8
Language: en
Country: US
--></g></svg>