<?xml version="1.0" encoding="UTF-8" standalone="no"?>
<svg xmlns="http://www.w3.org/2000/svg" xmlns:xlink="http://www.w3.org/1999/xlink" contentScriptType="application/ecmascript" contentStyleType="text/css" height="171px" preserveAspectRatio="none" style="width:267px;height:171px;" version="1.1" viewBox="0 0 267 171" width="267px" zoomAndPan="magnify"><defs><filter height="300%" id="f1maw12q7rcmko" width="300%" x="-1" y="-1"><feGaussianBlur result="blurOut" stdDeviation="2.0"/><feColorMatrix in="blurOut" result="blurOut2" type="matrix" values="0 0 0 0 0 0 0 0 0 0 0 0 0 0 0 0 0 0 .4 0"/><feOffset dx="4.0" dy="4.0" in="blurOut2" result="blurOut3"/><feBlend in="SourceGraphic" in2="blurOut3" mode="normal"/></filter></defs><g><!--MD5=[003718b22fee2486eeba0fa029a176b7]
class OrderItem--><a href="java:fr.training.samples.spring.shop.domain.order.OrderItem" target="_top" title="java:fr.training.samples.spring.shop.domain.order.OrderItem" xlink:actuate="onRequest" xlink:href="java:fr.training.samples.spring.shop.domain.order.OrderItem" xlink:show="new" xlink:title="java:fr.training.samples.spring.shop.domain.order.OrderItem" xlink:type="simple"><rect codeLine="1" fill="#FEFECE" filter="url(#f1maw12q7rcmko)" height="150.4375" id="OrderItem" style="stroke:#A80036;stroke-width:1.5;" width="246" x="7" y="7"/><ellipse cx="94.75" cy="23" fill="#ADD1B2" rx="11" ry="11" style="stroke:#A80036;stroke-width:1.0;"/><path d="M97.0938,18.6719 C96.1563,18.2344 95.5625,18.0938 94.6875,18.0938 C92.0625,18.0938 90.0625,20.1719 90.0625,22.8906 L90.0625,24.0156 C90.0625,26.5938 92.1719,28.4844 95.0625,28.4844 C96.2813,28.4844 97.4375,28.1875 98.1875,27.6406 C98.7656,27.2344 99.0938,26.7813 99.0938,26.3906 C99.0938,25.9375 98.7031,25.5469 98.2344,25.5469 C98.0156,25.5469 97.8125,25.625 97.625,25.8125 C97.1719,26.2969 97.1719,26.2969 96.9844,26.3906 C96.5625,26.6563 95.875,26.7813 95.1094,26.7813 C93.0625,26.7813 91.7656,25.6875 91.7656,23.9844 L91.7656,22.8906 C91.7656,21.1094 93.0156,19.7969 94.75,19.7969 C95.3281,19.7969 95.9375,19.9531 96.4063,20.2031 C96.8906,20.4844 97.0625,20.7031 97.1563,21.1094 C97.2188,21.5156 97.25,21.6406 97.3906,21.7656 C97.5313,21.9063 97.7656,22.0156 97.9844,22.0156 C98.25,22.0156 98.5156,21.875 98.6875,21.6563 C98.7969,21.5 98.8281,21.3125 98.8281,20.8906 L98.8281,19.4688 C98.8281,19.0313 98.8125,18.9063 98.7188,18.75 C98.5625,18.4844 98.2813,18.3438 97.9844,18.3438 C97.6875,18.3438 97.4844,18.4375 97.2656,18.75 L97.0938,18.6719 Z " fill="#000000"/><text fill="#000000" font-family="sans-serif" font-size="12" lengthAdjust="spacingAndGlyphs" textLength="62" x="115.25" y="27.1543">OrderItem</text><line style="stroke:#A80036;stroke-width:1.5;" x1="8" x2="252" y1="39" y2="39"/><rect fill="none" height="6" style="stroke:#C82930;stroke-width:1.0;" width="6" x="15" y="47"/><text fill="#000000" font-family="sans-serif" font-size="11" lengthAdjust="spacingAndGlyphs" textLength="56" x="27" y="53.2104">Item item</text><rect fill="none" height="6" style="stroke:#C82930;stroke-width:1.0;" width="6" x="15" y="59.8047"/><text fill="#000000" font-family="sans-serif" font-size="11" lengthAdjust="spacingAndGlyphs" textLength="91" x="27" y="66.0151">Integer quantity</text><line style="stroke:#A80036;stroke-width:1.5;" x1="8" x2="252" y1="72.6094" y2="72.6094"/><polygon fill="#4177AF" points="18,79.6094,14,85.6094,22,85.6094" style="stroke:#1963A0;stroke-width:1.0;"/><text fill="#000000" font-family="sans-serif" font-size="11" lengthAdjust="spacingAndGlyphs" textLength="66" x="27" y="86.8198">OrderItem()</text><ellipse cx="18" cy="96.4141" fill="#84BE84" rx="3" ry="3" style="stroke:#038048;stroke-width:1.0;"/><text fill="#000000" font-family="sans-serif" font-size="11" lengthAdjust="spacingAndGlyphs" textLength="220" x="27" y="99.6245">OrderItem(Item item, Integer quantity)</text><ellipse cx="18" cy="109.2188" fill="#84BE84" rx="3" ry="3" style="stroke:#038048;stroke-width:1.0;"/><text fill="#000000" font-family="sans-serif" font-size="11" lengthAdjust="spacingAndGlyphs" textLength="122" x="27" y="112.4292">OrderItem(Item item)</text><ellipse cx="18" cy="122.0234" fill="#84BE84" rx="3" ry="3" style="stroke:#038048;stroke-width:1.0;"/><text fill="#000000" font-family="sans-serif" font-size="11" lengthAdjust="spacingAndGlyphs" textLength="83" x="27" y="125.2339">Item getItem()</text><ellipse cx="18" cy="134.8281" fill="#84BE84" rx="3" ry="3" style="stroke:#038048;stroke-width:1.0;"/><text fill="#000000" font-family="sans-serif" font-size="11" lengthAdjust="spacingAndGlyphs" textLength="120" x="27" y="138.0386">Integer getQuantity()</text><ellipse cx="18" cy="147.6328" fill="#84BE84" rx="3" ry="3" style="stroke:#038048;stroke-width:1.0;"/><text fill="#000000" font-family="sans-serif" font-size="11" lengthAdjust="spacingAndGlyphs" textLength="89" x="27" y="150.8433">String toString()</text></a><!--MD5=[dc316d6da60aacd027aa1eef8ba8d723]
@startuml
class OrderItem [[java:fr.training.samples.spring.shop.domain.order.OrderItem]] {
	-Item item
	-Integer quantity
	~OrderItem()
	+OrderItem(Item item, Integer quantity)
	+OrderItem(Item item)
	+Item getItem()
	+Integer getQuantity()
	+String toString()
}
@enduml

PlantUML version 1.2020.27beta5(Unknown compile time)
(GPL source distribution)
Java Runtime: Java(TM) SE Runtime Environment
JVM: Java HotSpot(TM) 64-Bit Server VM
Default Encoding: UTF-8
Language: en
Country: US
--></g></svg>