<?xml version="1.0" encoding="UTF-8" standalone="no"?><svg xmlns="http://www.w3.org/2000/svg" xmlns:xlink="http://www.w3.org/1999/xlink" contentScriptType="application/ecmascript" contentStyleType="text/css" height="354px" preserveAspectRatio="none" style="width:599px;height:354px;" version="1.1" viewBox="0 0 599 354" width="599px" zoomAndPan="magnify"><defs><filter height="300%" id="fxnhzdeac9yrz" width="300%" x="-1" y="-1"><feGaussianBlur result="blurOut" stdDeviation="2.0"/><feColorMatrix in="blurOut" result="blurOut2" type="matrix" values="0 0 0 0 0 0 0 0 0 0 0 0 0 0 0 0 0 0 .4 0"/><feOffset dx="4.0" dy="4.0" in="blurOut2" result="blurOut3"/><feBlend in="SourceGraphic" in2="blurOut3" mode="normal"/></filter></defs><g><!--MD5=[650f456611540451b2168c0950a143a4]
class EmailAdress--><a href="java:fr.training.samples.spring.shop.domain.customer.EmailAdress" target="_top" title="java:fr.training.samples.spring.shop.domain.customer.EmailAdress" xlink:actuate="onRequest" xlink:href="java:fr.training.samples.spring.shop.domain.customer.EmailAdress" xlink:show="new" xlink:title="java:fr.training.samples.spring.shop.domain.customer.EmailAdress" xlink:type="simple"><rect fill="#FEFECE" filter="url(#fxnhzdeac9yrz)" height="172.5234" id="EmailAdress" style="stroke: #A80036; stroke-width: 1.5;" width="164" x="6" y="143.5"/><ellipse cx="48.45" cy="159.5" fill="#ADD1B2" rx="11" ry="11" style="stroke: #A80036; stroke-width: 1.0;"/><path d="M51.2156,155.375 Q51.3719,155.1563 51.5594,155.0469 Q51.7469,154.9375 51.9656,154.9375 Q52.3406,154.9375 52.575,155.1953 Q52.8094,155.4531 52.8094,156.0625 L52.8094,157.5156 Q52.8094,158.125 52.575,158.3906 Q52.3406,158.6563 51.9656,158.6563 Q51.6219,158.6563 51.4188,158.4531 Q51.2156,158.2656 51.1063,157.75 Q51.0594,157.3906 50.8719,157.2031 Q50.5438,156.8281 49.9344,156.6094 Q49.325,156.3906 48.7,156.3906 Q47.9344,156.3906 47.3016,156.7188 Q46.6688,157.0469 46.1766,157.7969 Q45.6844,158.5469 45.6844,159.5781 L45.6844,160.6719 Q45.6844,161.9063 46.575,162.7266 Q47.4656,163.5469 49.0594,163.5469 Q49.9969,163.5469 50.6531,163.2969 Q51.0438,163.1406 51.4656,162.7031 Q51.7313,162.4375 51.8797,162.3594 Q52.0281,162.2813 52.2313,162.2813 Q52.5594,162.2813 52.8172,162.5391 Q53.075,162.7969 53.075,163.1406 Q53.075,163.4844 52.7313,163.8906 Q52.2313,164.4688 51.4344,164.7969 Q50.3563,165.25 49.0594,165.25 Q47.5438,165.25 46.3406,164.625 Q45.3563,164.125 44.6688,163.0547 Q43.9813,161.9844 43.9813,160.7031 L43.9813,159.5469 Q43.9813,158.2188 44.5984,157.0703 Q45.2156,155.9219 46.3094,155.3047 Q47.4031,154.6875 48.6375,154.6875 Q49.3719,154.6875 50.0203,154.8516 Q50.6688,155.0156 51.2156,155.375 Z "/><text fill="#000000" font-family="sans-serif" font-size="12" lengthAdjust="spacingAndGlyphs" textLength="71" x="68.55" y="164.4102">EmailAdress</text><line style="stroke: #A80036; stroke-width: 1.5;" x1="7" x2="169" y1="175.5" y2="175.5"/><rect fill="none" height="6" style="stroke: #C82930; stroke-width: 1.0;" width="6" x="14" y="183.5"/><text fill="#000000" font-family="sans-serif" font-size="11" lengthAdjust="spacingAndGlyphs" text-decoration="underline" textLength="103" x="26" y="190.9189">long serialVersionUID</text><rect fill="none" height="6" style="stroke: #C82930; stroke-width: 1.0;" width="6" x="14" y="197.3359"/><text fill="#000000" font-family="sans-serif" font-size="11" lengthAdjust="spacingAndGlyphs" textLength="57" x="26" y="204.7549">String value</text><line style="stroke: #A80036; stroke-width: 1.5;" x1="7" x2="169" y1="211.1719" y2="211.1719"/><polygon fill="#4177AF" points="17,218.1719,13,224.1719,21,224.1719" style="stroke: #1963A0; stroke-width: 1.0;"/><text fill="#000000" font-family="sans-serif" font-size="11" lengthAdjust="spacingAndGlyphs" textLength="68" x="26" y="226.5908">EmailAdress()</text><ellipse cx="17" cy="236.0078" fill="#84BE84" rx="3" ry="3" style="stroke: #038048; stroke-width: 1.0;"/><text fill="#000000" font-family="sans-serif" font-size="11" lengthAdjust="spacingAndGlyphs" textLength="125" x="26" y="240.4268">EmailAdress(String value)</text><ellipse cx="17" cy="249.8438" fill="#84BE84" rx="3" ry="3" style="stroke: #038048; stroke-width: 1.0;"/><text fill="#000000" font-family="sans-serif" font-size="11" lengthAdjust="spacingAndGlyphs" text-decoration="underline" textLength="138" x="26" y="254.2627">EmailAdress of(String value)</text><ellipse cx="17" cy="263.6797" fill="#84BE84" rx="3" ry="3" style="stroke: #038048; stroke-width: 1.0;"/><text fill="#000000" font-family="sans-serif" font-size="11" lengthAdjust="spacingAndGlyphs" textLength="82" x="26" y="268.0986">String getValue()</text><ellipse cx="17" cy="277.5156" fill="#84BE84" rx="3" ry="3" style="stroke: #038048; stroke-width: 1.0;"/><text fill="#000000" font-family="sans-serif" font-size="11" lengthAdjust="spacingAndGlyphs" textLength="129" x="26" y="281.9346">boolean equals(Object obj)</text><ellipse cx="17" cy="291.3516" fill="#84BE84" rx="3" ry="3" style="stroke: #038048; stroke-width: 1.0;"/><text fill="#000000" font-family="sans-serif" font-size="11" lengthAdjust="spacingAndGlyphs" textLength="71" x="26" y="295.7705">int hashCode()</text><ellipse cx="17" cy="305.1875" fill="#84BE84" rx="3" ry="3" style="stroke: #038048; stroke-width: 1.0;"/><text fill="#000000" font-family="sans-serif" font-size="11" lengthAdjust="spacingAndGlyphs" textLength="76" x="26" y="309.6064">String toString()</text></a><!--MD5=[cc3de0a176daa3c4ec875deafdf5ddd1]
class Serializable--><a href="java:java.io.Serializable" target="_top" title="java:java.io.Serializable" xlink:actuate="onRequest" xlink:href="java:java.io.Serializable" xlink:show="new" xlink:title="java:java.io.Serializable" xlink:type="simple"><rect fill="#FEFECE" filter="url(#fxnhzdeac9yrz)" height="48" id="Serializable" style="stroke: #A80036; stroke-width: 1.5;" width="99" x="192.5" y="8"/><ellipse cx="207.5" cy="24" fill="#B4A7E5" rx="11" ry="11" style="stroke: #A80036; stroke-width: 1.0;"/><path d="M208.4531,20.6406 L208.4531,27.2969 L210.1719,27.2969 Q210.7813,27.2969 211.0469,27.5313 Q211.3125,27.7656 211.3125,28.1563 Q211.3125,28.5313 211.0469,28.7656 Q210.7813,29 210.1719,29 L205.0313,29 Q204.4219,29 204.1563,28.7656 Q203.8906,28.5313 203.8906,28.1406 Q203.8906,27.7656 204.1563,27.5313 Q204.4219,27.2969 205.0313,27.2969 L206.75,27.2969 L206.75,20.6406 L205.0313,20.6406 Q204.4219,20.6406 204.1563,20.4063 Q203.8906,20.1719 203.8906,19.7813 Q203.8906,19.4063 204.1563,19.1719 Q204.4219,18.9375 205.0313,18.9375 L210.1719,18.9375 Q210.7813,18.9375 211.0469,19.1719 Q211.3125,19.4063 211.3125,19.7813 Q211.3125,20.1719 211.0469,20.4063 Q210.7813,20.6406 210.1719,20.6406 L208.4531,20.6406 Z "/><text fill="#000000" font-family="sans-serif" font-size="12" font-style="italic" lengthAdjust="spacingAndGlyphs" textLength="67" x="221.5" y="28.9102">Serializable</text><line style="stroke: #A80036; stroke-width: 1.5;" x1="193.5" x2="290.5" y1="40" y2="40"/><line style="stroke: #A80036; stroke-width: 1.5;" x1="193.5" x2="290.5" y1="48" y2="48"/></a><!--MD5=[c0cfaefa9bff8b109aa2ead27fcfac60]
class PostalAddress--><a href="java:fr.training.samples.spring.shop.domain.customer.PostalAddress" target="_top" title="java:fr.training.samples.spring.shop.domain.customer.PostalAddress" xlink:actuate="onRequest" xlink:href="java:fr.training.samples.spring.shop.domain.customer.PostalAddress" xlink:show="new" xlink:title="java:fr.training.samples.spring.shop.domain.customer.PostalAddress" xlink:type="simple"><rect fill="#FEFECE" filter="url(#fxnhzdeac9yrz)" height="227.8672" id="PostalAddress" style="stroke: #A80036; stroke-width: 1.5;" width="383" x="205.5" y="116"/><ellipse cx="352.25" cy="132" fill="#ADD1B2" rx="11" ry="11" style="stroke: #A80036; stroke-width: 1.0;"/><path d="M355.0156,127.875 Q355.1719,127.6563 355.3594,127.5469 Q355.5469,127.4375 355.7656,127.4375 Q356.1406,127.4375 356.375,127.6953 Q356.6094,127.9531 356.6094,128.5625 L356.6094,130.0156 Q356.6094,130.625 356.375,130.8906 Q356.1406,131.1563 355.7656,131.1563 Q355.4219,131.1563 355.2188,130.9531 Q355.0156,130.7656 354.9063,130.25 Q354.8594,129.8906 354.6719,129.7031 Q354.3438,129.3281 353.7344,129.1094 Q353.125,128.8906 352.5,128.8906 Q351.7344,128.8906 351.1016,129.2188 Q350.4688,129.5469 349.9766,130.2969 Q349.4844,131.0469 349.4844,132.0781 L349.4844,133.1719 Q349.4844,134.4063 350.375,135.2266 Q351.2656,136.0469 352.8594,136.0469 Q353.7969,136.0469 354.4531,135.7969 Q354.8438,135.6406 355.2656,135.2031 Q355.5313,134.9375 355.6797,134.8594 Q355.8281,134.7813 356.0313,134.7813 Q356.3594,134.7813 356.6172,135.0391 Q356.875,135.2969 356.875,135.6406 Q356.875,135.9844 356.5313,136.3906 Q356.0313,136.9688 355.2344,137.2969 Q354.1563,137.75 352.8594,137.75 Q351.3438,137.75 350.1406,137.125 Q349.1563,136.625 348.4688,135.5547 Q347.7813,134.4844 347.7813,133.2031 L347.7813,132.0469 Q347.7813,130.7188 348.3984,129.5703 Q349.0156,128.4219 350.1094,127.8047 Q351.2031,127.1875 352.4375,127.1875 Q353.1719,127.1875 353.8203,127.3516 Q354.4688,127.5156 355.0156,127.875 Z "/><text fill="#000000" font-family="sans-serif" font-size="12" lengthAdjust="spacingAndGlyphs" textLength="81" x="372.75" y="136.9102">PostalAddress</text><line style="stroke: #A80036; stroke-width: 1.5;" x1="206.5" x2="587.5" y1="148" y2="148"/><rect fill="none" height="6" style="stroke: #C82930; stroke-width: 1.0;" width="6" x="213.5" y="156"/><text fill="#000000" font-family="sans-serif" font-size="11" lengthAdjust="spacingAndGlyphs" text-decoration="underline" textLength="103" x="225.5" y="163.4189">long serialVersionUID</text><rect fill="none" height="6" style="stroke: #C82930; stroke-width: 1.0;" width="6" x="213.5" y="169.8359"/><text fill="#000000" font-family="sans-serif" font-size="11" lengthAdjust="spacingAndGlyphs" textLength="59" x="225.5" y="177.2549">String street</text><rect fill="none" height="6" style="stroke: #C82930; stroke-width: 1.0;" width="6" x="213.5" y="183.6719"/><text fill="#000000" font-family="sans-serif" font-size="11" lengthAdjust="spacingAndGlyphs" textLength="48" x="225.5" y="191.0908">String city</text><rect fill="none" height="6" style="stroke: #C82930; stroke-width: 1.0;" width="6" x="213.5" y="197.5078"/><text fill="#000000" font-family="sans-serif" font-size="11" lengthAdjust="spacingAndGlyphs" textLength="68" x="225.5" y="204.9268">String country</text><rect fill="none" height="6" style="stroke: #C82930; stroke-width: 1.0;" width="6" x="213.5" y="211.3438"/><text fill="#000000" font-family="sans-serif" font-size="11" lengthAdjust="spacingAndGlyphs" textLength="85" x="225.5" y="218.7627">String postalCode</text><line style="stroke: #A80036; stroke-width: 1.5;" x1="206.5" x2="587.5" y1="225.1797" y2="225.1797"/><polygon fill="#4177AF" points="216.5,232.1797,212.5,238.1797,220.5,238.1797" style="stroke: #1963A0; stroke-width: 1.0;"/><text fill="#000000" font-family="sans-serif" font-size="11" lengthAdjust="spacingAndGlyphs" textLength="79" x="225.5" y="240.5986">PostalAddress()</text><ellipse cx="216.5" cy="250.0156" fill="#84BE84" rx="3" ry="3" style="stroke: #038048; stroke-width: 1.0;"/><text fill="#000000" font-family="sans-serif" font-size="11" lengthAdjust="spacingAndGlyphs" textLength="357" x="225.5" y="254.4346">PostalAddress(String street, String city, String country, String postalCode)</text><ellipse cx="216.5" cy="263.8516" fill="#84BE84" rx="3" ry="3" style="stroke: #038048; stroke-width: 1.0;"/><text fill="#000000" font-family="sans-serif" font-size="11" lengthAdjust="spacingAndGlyphs" textLength="83" x="225.5" y="268.2705">String getStreet()</text><ellipse cx="216.5" cy="277.6875" fill="#84BE84" rx="3" ry="3" style="stroke: #038048; stroke-width: 1.0;"/><text fill="#000000" font-family="sans-serif" font-size="11" lengthAdjust="spacingAndGlyphs" textLength="72" x="225.5" y="282.1064">String getCity()</text><ellipse cx="216.5" cy="291.5234" fill="#84BE84" rx="3" ry="3" style="stroke: #038048; stroke-width: 1.0;"/><text fill="#000000" font-family="sans-serif" font-size="11" lengthAdjust="spacingAndGlyphs" textLength="92" x="225.5" y="295.9424">String getCountry()</text><ellipse cx="216.5" cy="305.3594" fill="#84BE84" rx="3" ry="3" style="stroke: #038048; stroke-width: 1.0;"/><text fill="#000000" font-family="sans-serif" font-size="11" lengthAdjust="spacingAndGlyphs" textLength="108" x="225.5" y="309.7783">String getPostalCode()</text><ellipse cx="216.5" cy="319.1953" fill="#84BE84" rx="3" ry="3" style="stroke: #038048; stroke-width: 1.0;"/><text fill="#000000" font-family="sans-serif" font-size="11" lengthAdjust="spacingAndGlyphs" textLength="131" x="225.5" y="323.6143">boolean equals(Object arg)</text><ellipse cx="216.5" cy="333.0313" fill="#84BE84" rx="3" ry="3" style="stroke: #038048; stroke-width: 1.0;"/><text fill="#000000" font-family="sans-serif" font-size="11" lengthAdjust="spacingAndGlyphs" textLength="71" x="225.5" y="337.4502">int hashCode()</text></a><!--MD5=[2adf3c9ae1fd485f009460a38514e787]
reverse link Serializable to EmailAdress--><path d="M211.36,71.997 C195.3,92.436 174.954,118.331 155.44,143.167 " fill="none" id="Serializable&lt;-EmailAdress" style="stroke: #A80036; stroke-width: 1.0; stroke-dasharray: 7.0,7.0;"/><polygon fill="none" points="205.869,67.655,223.729,56.253,216.877,76.305,205.869,67.655" style="stroke: #A80036; stroke-width: 1.0;"/><!--MD5=[e2cad9de0754d98b2cc617348e418823]
reverse link Serializable to PostalAddress--><path d="M273.104,72.331 C283.284,85.204 295.154,100.214 307.439,115.749 " fill="none" id="Serializable&lt;-PostalAddress" style="stroke: #A80036; stroke-width: 1.0; stroke-dasharray: 7.0,7.0;"/><polygon fill="none" points="267.305,76.283,260.389,56.253,278.286,67.599,267.305,76.283" style="stroke: #A80036; stroke-width: 1.0;"/><!--MD5=[423ebd7c0eed93701a7ec641a66f71a9]
@startuml
class EmailAdress [[java:fr.training.samples.spring.shop.domain.customer.EmailAdress]] {
	-{static}long serialVersionUID
	-String value
	~EmailAdress()
	+EmailAdress(String value)
	+{static}EmailAdress of(String value)
	+String getValue()
	+boolean equals(Object obj)
	+int hashCode()
	+String toString()
}
interface Serializable [[java:java.io.Serializable]] {
}
Serializable <|.. EmailAdress
class PostalAddress [[java:fr.training.samples.spring.shop.domain.customer.PostalAddress]] {
	-{static}long serialVersionUID
	-String street
	-String city
	-String country
	-String postalCode
	~PostalAddress()
	+PostalAddress(String street, String city, String country, String postalCode)
	+String getStreet()
	+String getCity()
	+String getCountry()
	+String getPostalCode()
	+boolean equals(Object arg)
	+int hashCode()
}
interface Serializable [[java:java.io.Serializable]] {
}
Serializable <|.. PostalAddress
@enduml

PlantUML version 1.2019.11(Sun Sep 22 12:02:15 CEST 2019)
(EPL source distribution)
Java Runtime: Java(TM) SE Runtime Environment
JVM: Java HotSpot(TM) 64-Bit Server VM
Java Version: 1.8.0_162-b12
Operating System: Windows 10
Default Encoding: Cp1252
Language: fr
Country: FR
--></g></svg>